<svg fill="none" height="24" viewBox="0 0 24 24" width="24" xmlns="http://www.w3.org/2000/svg"><g fill="#28303f"><path clip-rule="evenodd" d="m15.9995 1.25c.4142 0 .75.33579.75.75v3c0 .41421-.3358.75-.75.75s-.75-.33579-.75-.75v-3c0-.41421.3358-.75.75-.75z" fill-rule="evenodd"/><path clip-rule="evenodd" d="m7.99951 1.25c.41422 0 .75.33579.75.75v3c0 .41421-.33578.75-.75.75-.41421 0-.75-.33579-.75-.75v-3c0-.41421.33579-.75.75-.75z" fill-rule="evenodd"/><path d="m17 3.5h-10c-2.20914 0-4 1.79086-4 4v10.5c0 2.2091 1.79086 4 4 4h10c2.2091 0 4-1.7909 4-4v-10.5c0-2.20914-1.7909-4-4-4z" opacity=".4"/><g clip-rule="evenodd" fill-rule="evenodd"><path d="m7.25 9c0-.41421.33579-.75.75-.75h4c.4142 0 .75.33579.75.75s-.3358.75-.75.75h-4c-.41421 0-.75-.33579-.75-.75z"/><path d="m7.25 13c0-.4142.33579-.75.75-.75h8c.4142 0 .75.3358.75.75s-.3358.75-.75.75h-8c-.41421 0-.75-.3358-.75-.75z"/><path d="m7.25 17c0-.4142.33579-.75.75-.75h8c.4142 0 .75.3358.75.75s-.3358.75-.75.75h-8c-.41421 0-.75-.3358-.75-.75z"/></g></g></svg>